<svg xmlns="http://www.w3.org/2000/svg" viewBox="0 0 200 200">
  <path d="M100,100 C88,82 65,58 65,40 C65,20 80,12 100,30 C120,12 135,20 135,40 C135,58 112,82 100,100Z" fill="#22c55e"/>
  <path d="M100,100 C118,88 142,65 160,65 C180,65 188,80 170,100 C188,120 180,135 160,135 C142,135 118,112 100,100Z" fill="#16a34a"/>
  <path d="M100,100 C112,118 135,142 135,160 C135,180 120,188 100,170 C80,188 65,180 65,160 C65,142 88,118 100,100Z" fill="#22c55e"/>
  <path d="M100,100 C82,112 58,135 40,135 C20,135 12,120 30,100 C12,80 20,65 40,65 C58,65 82,88 100,100Z" fill="#16a34a"/>
</svg>
